<?xml version="1.0" standalone="no"?>
<!DOCTYPE svg PUBLIC "-//W3C//DTD SVG 20010904//EN"
 "http://www.w3.org/TR/2001/REC-SVG-20010904/DTD/svg10.dtd">
<svg version="1.0" xmlns="http://www.w3.org/2000/svg"
 width="300.000000pt" height="300.000000pt" viewBox="0 0 300.000000 300.000000"
 preserveAspectRatio="xMidYMid meet">
<metadata>
Created by potrace 1.10, written by Peter Selinger 2001-2011
</metadata>
<g transform="translate(0.000000,300.000000) scale(0.100000,-0.100000)"
fill="#000000" stroke="none">
<path d="M1390 2577 c-65 -19 -673 -358 -653 -364 13 -5 192 91 503 267 120
68 193 91 271 85 35 -3 79 -13 99 -23 49 -25 321 -174 535 -293 44 -25 88 -46
108 -53 20 -6 23 -39 5 -53 -7 -6 -26 -13 -42 -17 -27 -7 -89 -40 -266 -140
-30 -17 -95 -53 -143 -81 -48 -27 -96 -56 -105 -65 -10 -9 -24 -15 -32 -13
-13 4 -13 3 0 -6 11 -8 0 -17 -53 -42 -63 -29 -75 -31 -145 -27 -75 5 -139 27
-173 61 -27 26 -76 55 -199 119 -153 80 -220 117 -240 132 -28 21 -78 46 -92
46 -12 0 169 -105 412 -238 188 -103 267 -181 289 -283 13 -60 14 -723 2 -789
-6 -30 -19 -53 -40 -72 -30 -27 -81 -38 -81 -18 0 6 9 10 19 10 26 0 69 53 76
93 3 18 5 201 3 407 -3 371 -3 376 -26 420 -47 89 -60 98 -477 328 -231 128
-258 137 -314 107 -59 -30 -61 -46 -61 -457 0 -422 1 -433 72 -512 22 -25 70
-63 106 -83 37 -20 70 -41 73 -46 3 -5 10 -9 15 -9 18 -1 74 -32 74 -40 0 -5
5 -6 10 -3 6 3 10 1 10 -5 0 -6 4 -9 9 -6 5 4 11 2 13 -3 1 -5 10 -11 18 -13
8 -2 23 -11 34 -20 10 -10 23 -15 28 -12 4 3 8 0 8 -6 0 -6 5 -8 10 -5 5 3 10
1 10 -6 0 -7 3 -9 6 -6 8 8 64 -24 64 -36 0 -4 4 -6 9 -2 5 3 15 0 23 -7 7 -7
19 -14 27 -16 7 -1 20 -9 28 -17 8 -8 21 -15 29 -15 8 0 14 -5 14 -11 0 -5 5
-7 10 -4 5 3 10 1 10 -5 0 -6 5 -8 10 -5 5 3 10 2 10 -4 0 -17 128 -51 189
-50 51 0 150 26 108 28 -32 2 -66 32 -82 74 -14 37 -15 95 -13 437 3 382 4
396 25 440 41 85 105 131 471 332 265 146 302 158 367 119 l35 -20 -33 51
c-30 47 -44 58 -152 113 -66 34 -149 77 -185 97 -446 245 -439 241 -520 245
-42 1 -95 -3 -120 -10z m-605 -547 c28 -16 68 -38 90 -51 22 -12 81 -45 130
-72 50 -27 116 -64 148 -83 32 -19 60 -34 63 -34 3 0 36 -20 73 -44 74 -48
122 -115 135 -189 11 -58 7 -686 -4 -732 -10 -42 -40 -75 -70 -75 -20 0 -92
33 -192 88 -36 20 -99 54 -140 76 -40 21 -78 42 -83 47 -6 4 -49 27 -95 51
-47 24 -101 55 -120 67 -47 31 -95 96 -109 146 -14 51 -15 753 -1 789 12 33
57 56 95 49 17 -3 53 -18 80 -33z m739 -309 c8 -12 -33 -63 -45 -55 -5 3 -16
18 -24 35 l-16 29 40 0 c22 0 42 -4 45 -9z m-17 -997 c2 -6 -5 -14 -17 -17
-15 -4 -20 0 -20 15 0 21 30 23 37 2z"/>
<path d="M704 1906 l-28 -23 0 -314 -1 -314 27 -46 c28 -48 65 -73 258 -178
272 -148 316 -163 358 -118 38 41 41 66 38 358 -2 251 -5 288 -21 319 -23 45
-51 69 -123 105 -31 16 -73 39 -92 51 -125 76 -339 184 -365 184 -13 0 -36
-11 -51 -24z m164 -45 c48 -26 157 -87 242 -134 86 -48 169 -101 185 -118 l30
-30 0 -314 c0 -294 -1 -314 -19 -334 -11 -12 -28 -21 -38 -21 -16 0 -436 223
-506 268 -13 8 -32 32 -43 53 -18 35 -19 61 -19 340 0 267 2 305 17 321 25 28
56 22 151 -31z"/>
<path d="M735 1869 c-4 -5 -8 -141 -8 -302 -2 -323 0 -334 62 -370 30 -18 31
-18 31 2 0 12 -4 21 -10 21 -23 0 -7 18 30 35 51 23 46 30 -8 12 -45 -16 -52
-14 -52 16 0 16 -3 17 -15 7 -13 -11 -15 20 -15 269 0 197 3 280 11 276 9 -6
12 -144 10 -425 -1 -29 1 -32 10 -17 6 9 9 25 8 35 -1 9 -1 106 0 216 1 175 3
197 16 186 12 -10 15 -36 15 -118 0 -58 3 -103 6 -100 4 5 13 128 14 192 0 5
8 2 18 -7 10 -10 23 -17 29 -17 6 0 13 -3 15 -7 2 -5 16 -16 33 -25 40 -23 40
-29 0 -57 l-35 -24 0 -141 c0 -106 4 -148 15 -170 8 -15 15 -34 15 -41 0 -7
78 -54 174 -104 l173 -91 2 -62 c1 -33 6 -68 11 -77 17 -31 21 34 18 305 -3
228 -6 274 -19 294 -17 26 -34 36 -335 201 -178 98 -207 109 -219 88z m314
-173 c14 -16 125 -86 138 -86 12 0 53 -38 53 -50 0 -5 -9 -12 -20 -15 -15 -5
-50 10 -121 50 -55 31 -105 55 -111 53 -7 -3 40 -32 103 -67 113 -62 114 -62
147 -47 52 25 60 18 20 -17 l-37 -32 -3 -147 c-2 -82 -6 -148 -11 -148 -4 0
-58 26 -120 59 -155 81 -157 85 -157 262 l0 139 48 30 c54 34 56 35 71 16z
m223 -428 c3 -15 1 -28 -3 -28 -4 0 -4 -13 1 -30 5 -16 6 -38 3 -49 -4 -17 -8
-19 -27 -9 -29 15 -29 14 -16 38 6 12 12 41 13 64 1 49 23 59 29 14z"/>
<path d="M960 1606 c0 -9 39 -36 96 -67 52 -28 101 -61 108 -73 8 -13 14 -62
15 -130 1 -60 4 -112 6 -115 3 -3 4 58 3 134 l-3 139 -60 34 c-33 18 -84 47
-112 63 -41 24 -53 27 -53 15z"/>
<path d="M860 1160 c29 -21 110 -60 110 -53 0 5 -24 19 -53 32 -67 32 -75 35
-57 21z"/>
<path d="M1072 1045 c11 -11 168 -93 163 -85 -6 10 -149 90 -160 90 -5 0 -6
-2 -3 -5z"/>
<path d="M1450 2480 c-25 -3 -67 -18 -95 -34 -27 -16 -78 -43 -111 -60 -34
-18 -68 -37 -76 -44 -9 -7 -55 -32 -104 -57 -95 -49 -124 -74 -124 -109 1 -17
3 -15 14 10 11 25 43 46 182 121 93 50 200 108 238 128 106 58 124 54 391 -93
243 -134 265 -147 265 -166 0 -29 -80 -79 -362 -226 -73 -38 -128 -70 -123
-70 21 0 457 225 481 248 30 31 31 62 2 89 -13 11 -81 52 -153 90 -352 190
-339 184 -425 173z"/>
<path d="M1432 2430 c-80 -36 -430 -231 -443 -246 -18 -22 -6 -30 162 -122
219 -120 306 -162 335 -162 28 0 123 46 329 158 136 73 188 109 180 122 -7 11
-198 111 -203 106 -1 -2 0 -16 4 -30 6 -25 8 -26 24 -11 20 18 30 11 30 -22 0
-22 1 -23 16 -9 20 21 34 12 34 -22 l1 -27 12 23 c16 28 27 19 27 -22 0 -23
-3 -27 -12 -18 -16 16 -28 15 -28 -2 0 -22 -19 -30 -35 -16 -12 10 -15 9 -15
-4 0 -9 -19 -24 -44 -36 -56 -25 -66 -25 -66 0 0 20 -40 94 -40 75 0 -5 -7 -1
-15 9 -8 11 -18 17 -21 13 -11 -11 -34 14 -34 37 -1 19 -2 19 -11 3 -10 -17
-12 -17 -37 2 -38 27 -112 45 -125 32 -6 -6 -19 -11 -29 -11 -10 0 -18 -3 -18
-8 0 -4 -12 -12 -27 -18 -46 -19 -57 -24 -81 -38 -41 -24 -72 -59 -72 -82 0
-13 -5 -26 -10 -29 -11 -7 -110 43 -110 55 0 4 -8 7 -17 6 -14 -1 -18 7 -18
39 0 35 3 40 22 38 14 -2 24 4 28 17 7 22 25 27 25 8 0 -7 8 -4 18 8 9 11 34
28 55 38 20 9 37 22 37 28 0 9 3 9 12 0 18 -18 25 -15 32 13 8 32 23 24 35
-18 9 -31 9 -30 10 16 1 43 3 48 20 42 12 -4 23 0 29 10 10 19 88 28 115 14
13 -7 17 -6 17 5 0 12 5 13 31 4 52 -18 44 0 -12 27 -65 30 -63 30 -117 5z
m99 -214 c144 -75 199 -110 188 -120 -13 -12 -221 -116 -233 -116 -8 0 -57 22
-109 50 -94 49 -94 49 -105 27 -9 -19 -11 -17 -11 20 -1 41 0 42 67 79 145 82
155 85 203 60z"/>
<path d="M1624 2136 c16 -13 17 -18 6 -31 -7 -8 -16 -15 -21 -15 -4 0 -28 -13
-52 -30 -52 -35 -88 -38 -127 -10 -30 22 -121 63 -126 57 -7 -7 165 -97 184
-97 19 0 177 85 187 99 2 4 -13 15 -33 25 -28 12 -32 13 -18 2z"/>
<path d="M1610 2365 c0 -25 14 -33 25 -15 11 17 25 11 25 -11 0 -11 5 -17 10
-14 6 4 23 1 39 -6 23 -10 30 -22 35 -51 8 -48 23 -49 28 -2 4 35 3 36 -75 80
-44 24 -81 44 -83 44 -2 0 -4 -11 -4 -25z"/>
<path d="M649 2178 c-26 -24 -57 -63 -69 -87 l-22 -45 31 32 c35 35 82 48 133
37 l33 -7 -29 22 c-24 20 -27 28 -23 57 3 18 3 33 -1 33 -4 0 -28 -19 -53 -42z"/>
<path d="M2075 1992 c-464 -253 -469 -256 -513 -344 l-34 -67 -5 -353 c-6
-393 -1 -453 44 -488 34 -26 89 -26 133 1 19 12 91 51 160 87 69 36 187 98
262 139 76 40 142 73 147 73 16 0 80 78 108 132 l28 53 -3 375 c-1 206 -2 388
-2 403 0 18 -11 39 -29 58 -53 52 -88 44 -296 -69z m276 57 l30 -31 -3 -386
c-4 -539 37 -474 -463 -735 -110 -57 -219 -114 -243 -127 -34 -19 -48 -22 -70
-14 -49 17 -53 51 -54 453 0 359 0 364 23 415 13 28 40 67 60 86 36 34 59 49
209 129 41 23 95 53 120 68 91 54 201 113 209 113 5 0 16 6 23 13 20 19 81 46
106 46 13 1 36 -12 53 -30z"/>
<path d="M2175 1916 c-17 -6 -48 -22 -70 -35 -70 -42 -108 -63 -213 -118 -172
-91 -228 -131 -248 -180 -22 -51 -27 -606 -6 -648 19 -38 29 -45 72 -45 24 0
68 18 135 55 55 30 158 85 229 122 71 38 146 84 167 103 58 55 62 83 57 418
-5 290 -5 293 -28 317 -25 27 -47 29 -95 11z m89 -28 c14 -19 16 -66 16 -309
0 -298 -4 -333 -44 -377 -11 -13 -79 -55 -151 -94 -71 -39 -179 -97 -239 -130
-131 -71 -154 -77 -181 -48 -19 21 -20 40 -23 300 -4 294 1 340 41 385 32 36
505 295 538 295 17 0 34 -8 43 -22z"/>
<path d="M2135 1847 c-33 -19 -139 -77 -236 -130 -96 -54 -186 -109 -200 -123
l-24 -26 -3 -293 c-3 -289 1 -335 29 -335 6 0 125 61 264 136 231 124 254 139
269 172 14 32 16 76 14 332 l-3 295 -25 3 c-14 1 -52 -13 -85 -31z m85 -281
c0 -151 -3 -281 -6 -290 -8 -20 -44 -20 -91 -1 -58 24 -53 16 11 -16 l59 -31
-34 -21 c-50 -31 -76 -45 -164 -90 -44 -22 -104 -55 -133 -74 -29 -18 -57 -33
-63 -33 -6 0 -22 -9 -36 -20 -32 -25 -63 -26 -64 -2 -1 25 3 119 7 182 3 30 4
78 5 105 0 43 1 47 10 26 5 -14 9 -41 7 -62 -1 -21 5 -48 16 -63 l17 -27 92
50 c163 88 202 111 194 111 -4 0 -1 13 7 28 11 21 16 70 18 170 3 137 2 141
-21 166 -13 14 -32 28 -43 32 -30 9 -21 22 40 50 31 15 61 33 65 41 5 7 12 11
16 8 5 -2 14 2 21 11 10 11 15 12 20 3 5 -8 11 -6 21 5 8 8 17 15 22 16 4 0 7
-123 7 -274z m-243 122 c62 -35 63 -38 63 -191 l0 -140 -38 -36 c-35 -33 -216
-131 -241 -131 -7 0 -11 50 -11 149 l0 150 -32 25 c-39 30 -29 48 13 23 17 -9
35 -17 41 -17 6 0 61 28 122 62 75 42 105 64 92 66 -19 4 -54 -12 -151 -68
-57 -33 -101 -40 -91 -14 3 9 6 17 6 19 0 2 39 25 86 52 48 26 89 54 91 61 6
16 5 16 50 -10z"/>
<path d="M1914 1562 c-56 -31 -109 -63 -118 -71 -13 -11 -16 -34 -14 -145 l2
-131 5 123 c7 141 6 139 116 196 47 25 130 86 115 85 -3 0 -51 -26 -106 -57z"/>
<path d="M1590 1804 c-60 -18 -122 -24 -162 -14 -89 23 -86 23 -53 3 45 -26
175 -24 235 4 52 25 44 28 -20 7z"/>
</g>
</svg>
